<?xml version="1.0" encoding="UTF-8"?>
<!DOCTYPE svg PUBLIC "-//W3C//DTD SVG 1.1//EN" "http://www.w3.org/Graphics/SVG/1.1/DTD/svg11.dtd">
<svg xmlns="http://www.w3.org/2000/svg" version="1.1" width="2472px" height="649px" style="shape-rendering:geometricPrecision; text-rendering:geometricPrecision; image-rendering:optimizeQuality; fill-rule:evenodd; clip-rule:evenodd" xmlns:xlink="http://www.w3.org/1999/xlink">
<g><path style="opacity:1" fill="#07cbf3" d="M 418.5,262.5 C 418.167,262.5 417.833,262.5 417.5,262.5C 411.994,237.156 406.161,211.823 400,186.5C 395.928,177.715 389.095,172.715 379.5,171.5C 272.651,195.528 165.985,220.195 59.5,245.5C 141.647,180.864 223.98,116.364 306.5,52C 310.51,49.1247 315.01,47.958 320,48.5C 327.323,48.1607 333.323,50.8274 338,56.5C 377.667,107.5 417.333,158.5 457,209.5C 457.667,215.833 457.667,222.167 457,228.5C 456,230.167 455,231.833 454,233.5C 442.268,243.409 430.435,253.076 418.5,262.5 Z"/></g>
<g><path style="opacity:1" fill="#0280f3" d="M 417.5,262.5 C 404.856,271.816 392.522,281.483 380.5,291.5C 380.167,291.5 379.833,291.5 379.5,291.5C 359.45,265.272 338.784,239.438 317.5,214C 308.073,208.097 298.74,208.097 289.5,214C 232.123,261.046 174.456,307.712 116.5,354C 115.177,354.816 114.511,355.983 114.5,357.5C 113.833,357.167 113.167,356.833 112.5,356.5C 92.1848,329.523 71.5182,302.857 50.5,276.5C 49.7717,272.69 49.1051,268.857 48.5,265C 49.149,260.555 50.4823,256.388 52.5,252.5C 53.8114,249.189 56.1447,246.855 59.5,245.5C 165.985,220.195 272.651,195.528 379.5,171.5C 389.095,172.715 395.928,177.715 400,186.5C 406.161,211.823 411.994,237.156 417.5,262.5 Z"/></g>
<g><path style="opacity:1" fill="#104ba7" d="M 379.5,291.5 C 319.353,338.803 259.02,385.97 198.5,433C 187.474,438.817 177.641,437.317 169,428.5C 150.618,404.957 132.451,381.291 114.5,357.5C 114.511,355.983 115.177,354.816 116.5,354C 174.456,307.712 232.123,261.046 289.5,214C 298.74,208.097 308.073,208.097 317.5,214C 338.784,239.438 359.45,265.272 379.5,291.5 Z"/></g>
<g><path style="opacity:0.98" fill="#fefffe" d="M 677.5,221.5 C 703.12,218.322 726.787,223.489 748.5,237C 764.678,249.679 775.345,266.012 780.5,286C 765.801,290.575 750.801,294.075 735.5,296.5C 729.725,273.094 714.725,260.761 690.5,259.5C 665.404,261.109 648.904,273.775 641,297.5C 635.03,321.831 635.03,346.165 641,370.5C 648.029,394.775 664.195,407.775 689.5,409.5C 705.236,408.718 717.736,402.051 727,389.5C 731.679,381.456 735.179,372.956 737.5,364C 738.833,363.333 740.167,363.333 741.5,364C 754.383,368.303 767.383,372.136 780.5,375.5C 772.886,413.613 750.219,437.113 712.5,446C 659.677,454.842 621.844,435.342 599,387.5C 587.456,351.731 587.789,316.064 600,280.5C 615.141,246.69 640.974,227.024 677.5,221.5 Z"/></g>
<g><path style="opacity:0.98" fill="#fefffe" d="M 2315.5,221.5 C 2327.17,221.333 2338.84,221.5 2350.5,222C 2388.97,225.637 2410.97,246.47 2416.5,284.5C 2416.17,285.833 2415.83,287.167 2415.5,288.5C 2400.89,289.77 2386.22,290.437 2371.5,290.5C 2367.76,268.775 2354.76,258.441 2332.5,259.5C 2322.2,259.658 2312.54,262.158 2303.5,267C 2292.77,276.729 2293.1,286.063 2304.5,295C 2308.05,296.941 2311.71,298.607 2315.5,300C 2331.33,304.957 2347.33,309.291 2363.5,313C 2412.73,325.558 2430.9,356.392 2418,405.5C 2409.1,424.399 2394.6,436.899 2374.5,443C 2361.74,446.553 2348.74,448.053 2335.5,447.5C 2314.27,448.777 2294.61,443.943 2276.5,433C 2256.84,417.354 2246.84,397.02 2246.5,372C 2260.48,370.335 2274.48,369.335 2288.5,369C 2293.4,395.213 2309.23,408.713 2336,409.5C 2350.67,409.952 2363,404.952 2373,394.5C 2380.27,384.365 2379.77,374.532 2371.5,365C 2366.23,361.53 2360.56,358.864 2354.5,357C 2337.08,352.645 2319.75,347.978 2302.5,343C 2260.56,328.957 2245.73,300.79 2258,258.5C 2265.96,241.93 2278.8,231.097 2296.5,226C 2302.95,224.415 2309.28,222.915 2315.5,221.5 Z"/></g>
<g><path style="opacity:0.986" fill="#fefffe" d="M 891.5,225.5 C 907.514,225.167 923.514,225.501 939.5,226.5C 968.602,298.644 997.602,370.81 1026.5,443C 1010.17,443.667 993.833,443.667 977.5,443C 971.269,426.811 964.936,410.644 958.5,394.5C 929.833,393.167 901.167,393.167 872.5,394.5C 866.593,410.722 860.593,426.889 854.5,443C 838.837,443.5 823.17,443.667 807.5,443.5C 835.3,370.767 863.3,298.1 891.5,225.5 Z M 914.5,278.5 C 924.934,304.128 934.601,330.128 943.5,356.5C 924.488,356.833 905.488,356.5 886.5,355.5C 896.234,329.963 905.568,304.296 914.5,278.5 Z"/></g>
<g><path style="opacity:0.985" fill="#fefffe" d="M 1060.5,225.5 C 1099.83,225.333 1139.17,225.5 1178.5,226C 1216.83,228.331 1237.16,248.664 1239.5,287C 1239.07,313.064 1227.07,331.397 1203.5,342C 1196.91,344.314 1190.24,346.314 1183.5,348C 1193.89,354.393 1203.06,362.227 1211,371.5C 1226.67,394.827 1241.83,418.494 1256.5,442.5C 1238.5,443.833 1220.5,443.833 1202.5,442.5C 1184.81,414.977 1166.14,388.143 1146.5,362C 1142.8,359.148 1138.8,356.815 1134.5,355C 1124.91,353.355 1115.24,352.522 1105.5,352.5C 1105.5,382.833 1105.5,413.167 1105.5,443.5C 1090.5,443.5 1075.5,443.5 1060.5,443.5C 1060.5,370.833 1060.5,298.167 1060.5,225.5 Z M 1105.5,262.5 C 1122.17,262.333 1138.84,262.5 1155.5,263C 1167.29,261.458 1177.79,264.291 1187,271.5C 1195.91,285.502 1194.74,298.668 1183.5,311C 1180.62,312.608 1177.62,313.941 1174.5,315C 1151.55,317.096 1128.55,317.929 1105.5,317.5C 1105.5,299.167 1105.5,280.833 1105.5,262.5 Z"/></g>
<g><path style="opacity:0.991" fill="#fefffe" d="M 1292.5,225.5 C 1326.83,225.333 1361.17,225.5 1395.5,226C 1426.65,228.509 1449.15,243.676 1463,271.5C 1471.84,292.051 1476.01,313.551 1475.5,336C 1476.85,366.945 1468.02,394.445 1449,418.5C 1434.15,433.004 1416.32,441.171 1395.5,443C 1361.17,443.5 1326.83,443.667 1292.5,443.5C 1292.5,370.833 1292.5,298.167 1292.5,225.5 Z M 1336.5,262.5 C 1352.85,262.423 1369.18,262.923 1385.5,264C 1409.25,267.75 1423.08,281.584 1427,305.5C 1430.49,327.959 1429.82,350.292 1425,372.5C 1422.26,386.552 1414.43,396.385 1401.5,402C 1397.94,403.408 1394.28,404.408 1390.5,405C 1372.52,406.266 1354.52,406.766 1336.5,406.5C 1336.5,358.5 1336.5,310.5 1336.5,262.5 Z"/></g>
<g><path style="opacity:0.992" fill="#fefffe" d="M 1610.5,225.5 C 1645.5,225.333 1680.5,225.5 1715.5,226C 1750.67,227.661 1771.17,245.828 1777,280.5C 1781.2,306.222 1774.04,328.055 1755.5,346C 1742.59,355.97 1727.93,360.97 1711.5,361C 1692.5,361.5 1673.5,361.667 1654.5,361.5C 1654.5,388.833 1654.5,416.167 1654.5,443.5C 1639.83,443.5 1625.17,443.5 1610.5,443.5C 1610.5,370.833 1610.5,298.167 1610.5,225.5 Z M 1654.5,262.5 C 1671.18,262.376 1687.85,262.876 1704.5,264C 1725.95,268.733 1734.45,281.9 1730,303.5C 1724.76,315.393 1715.59,321.893 1702.5,323C 1686.52,324.166 1670.52,324.666 1654.5,324.5C 1654.5,303.833 1654.5,283.167 1654.5,262.5 Z"/></g>
<g><path style="opacity:0.982" fill="#fefffe" d="M 2024.5,225.5 C 2039.5,225.5 2054.5,225.5 2069.5,225.5C 2069.33,272.168 2069.5,318.835 2070,365.5C 2070.06,394.39 2084.56,409.39 2113.5,410.5C 2140.29,409.872 2153.79,396.206 2154,369.5C 2154.5,321.501 2154.67,273.501 2154.5,225.5C 2169.5,225.5 2184.5,225.5 2199.5,225.5C 2199.67,270.835 2199.5,316.168 2199,361.5C 2201.06,420.604 2172.56,449.27 2113.5,447.5C 2093.71,448.925 2075.04,445.092 2057.5,436C 2038.75,424.017 2028.59,406.85 2027,384.5C 2025.99,374.191 2025.32,363.857 2025,353.5C 2024.5,310.835 2024.33,268.168 2024.5,225.5 Z"/></g>
<g><path style="opacity:0.989" fill="#fefffe" d="M 1827.5,227.5 C 1842.5,227.5 1857.5,227.5 1872.5,227.5C 1872.5,287.167 1872.5,346.833 1872.5,406.5C 1908.83,406.5 1945.17,406.5 1981.5,406.5C 1981.5,418.833 1981.5,431.167 1981.5,443.5C 1930.17,443.5 1878.83,443.5 1827.5,443.5C 1827.5,371.5 1827.5,299.5 1827.5,227.5 Z"/></g>
<g><path style="opacity:0.18" fill="#8fc8f9" d="M 52.5,252.5 C 50.4823,256.388 49.149,260.555 48.5,265C 49.1051,268.857 49.7717,272.69 50.5,276.5C 46.6989,269.393 46.5323,262.06 50,254.5C 50.7083,253.619 51.5416,252.953 52.5,252.5 Z"/></g>
<g><path style="opacity:1" fill="#db67ea" d="M 417.5,262.5 C 417.833,262.5 418.167,262.5 418.5,262.5C 421.167,275.167 423.833,287.833 426.5,300.5C 429.064,315.651 432.397,330.651 436.5,345.5C 436.747,346.713 437.414,347.38 438.5,347.5C 439.5,353.5 440.5,359.5 441.5,365.5C 421.167,340.833 400.833,316.167 380.5,291.5C 392.522,281.483 404.856,271.816 417.5,262.5 Z"/></g>
<g><path style="opacity:1" fill="#db66ea" d="M 50.5,276.5 C 71.5182,302.857 92.1848,329.523 112.5,356.5C 100.792,366.877 88.7921,376.877 76.5,386.5C 76.1667,386.5 75.8333,386.5 75.5,386.5C 73.1166,377.25 71.1166,367.916 69.5,358.5C 66.4505,342.421 62.9505,326.421 59,310.5C 58.7645,308.881 57.9311,307.881 56.5,307.5C 56.5,306.5 56.5,305.5 56.5,304.5C 57.0431,304.44 57.3764,304.107 57.5,303.5C 55.7373,295.653 53.7373,287.986 51.5,280.5C 50.5655,279.432 50.2322,278.099 50.5,276.5 Z"/></g>
<g><path style="opacity:0.341" fill="#e695f1" d="M 51.5,280.5 C 53.7373,287.986 55.7373,295.653 57.5,303.5C 57.3764,304.107 57.0431,304.44 56.5,304.5C 54.2034,296.749 52.5368,288.749 51.5,280.5 Z"/></g>
<g><path style="opacity:1" fill="#e8611e" d="M 379.5,291.5 C 379.833,291.5 380.167,291.5 380.5,291.5C 400.833,316.167 421.167,340.833 441.5,365.5C 443.101,368.55 444.101,371.884 444.5,375.5C 443.746,379.786 442.746,384.119 441.5,388.5C 441.573,390.027 440.906,391.027 439.5,391.5C 437.833,392.5 436.5,393.833 435.5,395.5C 432.764,397.196 429.764,398.362 426.5,399C 321.795,422.844 217.128,446.677 112.5,470.5C 102.881,470.067 96.0476,465.4 92,456.5C 86.5133,433.222 81.3466,409.888 76.5,386.5C 88.7921,376.877 100.792,366.877 112.5,356.5C 113.167,356.833 113.833,357.167 114.5,357.5C 132.451,381.291 150.618,404.957 169,428.5C 177.641,437.317 187.474,438.817 198.5,433C 259.02,385.97 319.353,338.803 379.5,291.5 Z"/></g>
<g><path style="opacity:0.031" fill="#e490f0" d="M 426.5,300.5 C 430.487,316.078 434.487,331.744 438.5,347.5C 437.414,347.38 436.747,346.713 436.5,345.5C 432.397,330.651 429.064,315.651 426.5,300.5 Z"/></g>
<g><path style="opacity:0.243" fill="#e48ef0" d="M 56.5,307.5 C 57.9311,307.881 58.7645,308.881 59,310.5C 62.9505,326.421 66.4505,342.421 69.5,358.5C 65.0308,341.625 60.6974,324.625 56.5,307.5 Z"/></g>
<g><path style="opacity:0.224" fill="#f3c679" d="M 444.5,375.5 C 445.161,380.356 444.161,384.69 441.5,388.5C 442.746,384.119 443.746,379.786 444.5,375.5 Z"/></g>
<g><path style="opacity:1" fill="#ebac05" d="M 75.5,386.5 C 75.8333,386.5 76.1667,386.5 76.5,386.5C 81.3466,409.888 86.5133,433.222 92,456.5C 96.0476,465.4 102.881,470.067 112.5,470.5C 217.128,446.677 321.795,422.844 426.5,399C 429.764,398.362 432.764,397.196 435.5,395.5C 353.312,463.181 270.645,530.348 187.5,597C 175.054,602.336 164.554,599.836 156,589.5C 118.667,543.5 81.3333,497.5 44,451.5C 41.3333,447.5 38.6667,443.5 36,439.5C 35.0804,432.724 35.4137,426.057 37,419.5C 49.3609,407.974 62.1942,396.974 75.5,386.5 Z"/></g>
<g><path style="opacity:0.02" fill="#f2d846" d="M 439.5,391.5 C 439.167,393.833 437.833,395.167 435.5,395.5C 436.5,393.833 437.833,392.5 439.5,391.5 Z"/></g>
</svg>
